<svg xmlns="http://www.w3.org/2000/svg" width="190.963" height="50.687" viewBox="0 0 190.963 50.687">
  <g id="logo" transform="translate(-334.761 -31)">
    <g id="small" transform="translate(447.054 71.714)">
      <path id="Path_2" data-name="Path 2" d="M457.784,336.32h.5l1.12,2.97q.511,1.369.647,1.845h.029q.2-.627.667-1.874l1.12-2.941h.5l-2.371,6.15a4.794,4.794,0,0,1-.482,1.013,1.3,1.3,0,0,1-.455.395,1.392,1.392,0,0,1-.631.131,2.173,2.173,0,0,1-.618-.1v-.419a2.258,2.258,0,0,0,.608.078.822.822,0,0,0,.439-.116,1.092,1.092,0,0,0,.343-.363,4.771,4.771,0,0,0,.355-.779q.2-.533.26-.694Z" transform="translate(-457.784 -334.036)" fill="rgb(37 37 37 / 50%)"></path>
      <path id="Path_3" data-name="Path 3" d="M471.435,341.591a2.3,2.3,0,0,1-1.8-.711,2.855,2.855,0,0,1-.645-1.991,3.105,3.105,0,0,1,.623-2.028,2.058,2.058,0,0,1,1.68-.762,1.814,1.814,0,0,1,1.475.653,2.694,2.694,0,0,1,.541,1.772v.39H469.5a2.5,2.5,0,0,0,.509,1.665,1.79,1.79,0,0,0,1.429.575,4.46,4.46,0,0,0,.8-.063,4.908,4.908,0,0,0,.869-.273v.438a3.913,3.913,0,0,1-.828.266A4.618,4.618,0,0,1,471.435,341.591Zm-.141-5.065a1.587,1.587,0,0,0-1.227.5,2.38,2.38,0,0,0-.54,1.454H472.8a2.311,2.311,0,0,0-.4-1.439A1.318,1.318,0,0,0,471.294,336.526Z" transform="translate(-463.834 -333.916)" fill="rgb(37 37 37 / 50%)"></path>
      <path id="Path_4" data-name="Path 4" d="M485.242,341.493v-3.432a1.675,1.675,0,0,0-.336-1.161,1.354,1.354,0,0,0-1.042-.363,1.806,1.806,0,0,0-1.391.48,2.264,2.264,0,0,0-.44,1.556v2.921h-.482V336.2h.409l.092.725h.029a1.991,1.991,0,0,1,1.836-.827q1.8,0,1.8,1.933v3.462Z" transform="translate(-470.614 -333.916)" fill="rgb(37 37 37 / 50%)"></path>
      <path id="Path_5" data-name="Path 5" d="M494.185,332.576q0-.467.307-.467a.272.272,0,0,1,.236.121.6.6,0,0,1,.085.346.61.61,0,0,1-.085.346.268.268,0,0,1-.236.127Q494.185,333.049,494.185,332.576Zm.55,6.764h-.482v-5.293h.482Z" transform="translate(-477.434 -331.763)" fill="rgb(37 37 37 / 50%)"></path>
      <path id="Path_6" data-name="Path 6" d="M508.553,341.493v-3.432a1.675,1.675,0,0,0-.336-1.161,1.356,1.356,0,0,0-1.042-.363,1.8,1.8,0,0,0-1.39.48,2.261,2.261,0,0,0-.441,1.556v2.921h-.482V336.2h.41l.092.725h.029a1.99,1.99,0,0,1,1.836-.827q1.8,0,1.8,1.933v3.462Z" transform="translate(-483.198 -333.916)" fill="rgb(37 37 37 / 50%)"></path>
      <path id="Path_7" data-name="Path 7" d="M519.423,341.591a2.305,2.305,0,0,1-1.8-.711,2.857,2.857,0,0,1-.645-1.991,3.105,3.105,0,0,1,.623-2.028,2.059,2.059,0,0,1,1.68-.762,1.814,1.814,0,0,1,1.475.653,2.7,2.7,0,0,1,.54,1.772v.39h-3.813a2.5,2.5,0,0,0,.508,1.665,1.791,1.791,0,0,0,1.429.575,4.469,4.469,0,0,0,.8-.063,4.918,4.918,0,0,0,.869-.273v.438a3.9,3.9,0,0,1-.828.266A4.611,4.611,0,0,1,519.423,341.591Zm-.141-5.065a1.585,1.585,0,0,0-1.227.5,2.377,2.377,0,0,0-.541,1.454h3.272a2.31,2.31,0,0,0-.4-1.439A1.318,1.318,0,0,0,519.283,336.526Z" transform="translate(-489.739 -333.916)" fill="rgb(37 37 37 / 50%)"></path>
      <path id="Path_8" data-name="Path 8" d="M532.262,340.115a1.258,1.258,0,0,1-.54,1.093,2.634,2.634,0,0,1-1.534.382,3.655,3.655,0,0,1-1.685-.327v-.521a3.713,3.713,0,0,0,1.685.4,2.228,2.228,0,0,0,1.191-.26.793.793,0,0,0,.406-.694.846.846,0,0,0-.324-.672,3.59,3.59,0,0,0-1.064-.536,6.1,6.1,0,0,1-1.115-.494,1.538,1.538,0,0,1-.484-.468,1.17,1.17,0,0,1-.163-.636,1.084,1.084,0,0,1,.5-.939,2.42,2.42,0,0,1,1.4-.346,4.175,4.175,0,0,1,1.626.322l-.18.438a3.81,3.81,0,0,0-1.446-.322,2.1,2.1,0,0,0-1.028.214.657.657,0,0,0-.38.594.824.824,0,0,0,.294.662,4.106,4.106,0,0,0,1.152.555,5.7,5.7,0,0,1,1.042.465,1.516,1.516,0,0,1,.489.47A1.151,1.151,0,0,1,532.262,340.115Z" transform="translate(-495.96 -333.916)" fill="rgb(37 37 37 / 50%)"></path>
      <path id="Path_9" data-name="Path 9" d="M539.486,332.576q0-.467.307-.467a.272.272,0,0,1,.236.121.6.6,0,0,1,.085.346.611.611,0,0,1-.085.346.268.268,0,0,1-.236.127Q539.486,333.049,539.486,332.576Zm.55,6.764h-.482v-5.293h.482Z" transform="translate(-501.889 -331.763)" fill="rgb(37 37 37 / 50%)"></path>
      <path id="Path_10" data-name="Path 10" d="M545.015,338.934h-.482v-7.577h.482Z" transform="translate(-504.613 -331.357)" fill="rgb(37 37 37 / 50%)"></path>
      <path id="Path_11" data-name="Path 11" d="M557.8,341.5l-.121-.838h-.04a2.516,2.516,0,0,1-.82.723,2.192,2.192,0,0,1-1,.212,1.72,1.72,0,0,1-1.213-.4,1.427,1.427,0,0,1-.433-1.105,1.364,1.364,0,0,1,.645-1.2,3.507,3.507,0,0,1,1.867-.453l1.008-.029v-.35a1.8,1.8,0,0,0-.307-1.14,1.19,1.19,0,0,0-.988-.385,3.312,3.312,0,0,0-1.525.409l-.18-.419a4.03,4.03,0,0,1,1.724-.409,1.718,1.718,0,0,1,1.3.453,1.989,1.989,0,0,1,.431,1.412v3.52Zm-1.948-.341a1.686,1.686,0,0,0,1.826-1.831v-.521l-.926.039a3.488,3.488,0,0,0-1.589.348,1,1,0,0,0-.475.918.987.987,0,0,0,.3.772A1.237,1.237,0,0,0,555.849,341.164Z" transform="translate(-509.818 -333.928)" fill="rgb(37 37 37 / 50%)"></path>
      <path id="Path_12" data-name="Path 12" d="M567.025,338.934h-.482v-7.577h.482Z" transform="translate(-516.495 -331.357)" fill="rgb(37 37 37 / 50%)"></path>
      <path id="Path_13" data-name="Path 13" d="M571.925,341.613h-.482V336.32h.482Z" transform="translate(-519.14 -334.036)" fill="rgb(37 37 37 / 50%)"></path>
      <path id="Path_14" data-name="Path 14" d="M579.065,340.115a1.258,1.258,0,0,1-.541,1.093,2.633,2.633,0,0,1-1.534.382,3.655,3.655,0,0,1-1.685-.327v-.521a3.715,3.715,0,0,0,1.685.4,2.226,2.226,0,0,0,1.191-.26.793.793,0,0,0,.406-.694.846.846,0,0,0-.324-.672,3.586,3.586,0,0,0-1.064-.536,6.1,6.1,0,0,1-1.115-.494,1.545,1.545,0,0,1-.484-.468,1.175,1.175,0,0,1-.163-.636,1.085,1.085,0,0,1,.5-.939,2.42,2.42,0,0,1,1.4-.346,4.173,4.173,0,0,1,1.626.322l-.18.438a3.81,3.81,0,0,0-1.446-.322,2.1,2.1,0,0,0-1.028.214.658.658,0,0,0-.38.594.822.822,0,0,0,.294.662,4.1,4.1,0,0,0,1.151.555,5.688,5.688,0,0,1,1.042.465,1.51,1.51,0,0,1,.489.47A1.15,1.15,0,0,1,579.065,340.115Zm-1.105,2.795a.86.86,0,0,1-.328.734,1.51,1.51,0,0,1-.918.246,1.336,1.336,0,0,1-.458-.053v-.429a1.518,1.518,0,0,0,.448.049,1.024,1.024,0,0,0,.579-.136.444.444,0,0,0,.2-.389q0-.458-.94-.59l.453-.847h.467l-.321.57Q577.96,342.244,577.96,342.91Z" transform="translate(-521.226 -333.916)" fill="rgb(37 37 37 / 50%)"></path>
      <path id="Path_15" data-name="Path 15" d="M586.557,341.613l-2.045-5.293h.5l1.369,3.6a11.07,11.07,0,0,1,.409,1.207h.029q.2-.662.409-1.217l1.368-3.589h.5l-2.045,5.293Z" transform="translate(-526.195 -334.036)" fill="rgb(37 37 37 / 50%)"></path>
      <path id="Path_16" data-name="Path 16" d="M598.162,341.591a2.305,2.305,0,0,1-1.8-.711,2.857,2.857,0,0,1-.645-1.991,3.105,3.105,0,0,1,.623-2.028,2.059,2.059,0,0,1,1.681-.762,1.814,1.814,0,0,1,1.475.653,2.7,2.7,0,0,1,.54,1.772v.39h-3.812a2.5,2.5,0,0,0,.508,1.665,1.791,1.791,0,0,0,1.429.575,4.469,4.469,0,0,0,.8-.063,4.914,4.914,0,0,0,.869-.273v.438a3.9,3.9,0,0,1-.828.266A4.61,4.61,0,0,1,598.162,341.591Zm-.141-5.065a1.586,1.586,0,0,0-1.227.5,2.378,2.378,0,0,0-.541,1.454h3.272a2.31,2.31,0,0,0-.4-1.439A1.318,1.318,0,0,0,598.022,336.526Z" transform="translate(-532.245 -333.916)" fill="rgb(37 37 37 / 50%)"></path>
      <path id="Path_17" data-name="Path 17" d="M610.363,336.1a4.13,4.13,0,0,1,.721.068l-.093.462a2.845,2.845,0,0,0-.687-.083,1.334,1.334,0,0,0-1.11.575,2.342,2.342,0,0,0-.433,1.451v2.921h-.482V336.2h.41l.048.954h.034a2.244,2.244,0,0,1,.7-.821A1.631,1.631,0,0,1,610.363,336.1Z" transform="translate(-539.025 -333.916)" fill="rgb(37 37 37 / 50%)"></path>
      <path id="Path_18" data-name="Path 18" d="M616.564,332.576q0-.467.307-.467a.272.272,0,0,1,.236.121.6.6,0,0,1,.086.346.611.611,0,0,1-.086.346.268.268,0,0,1-.236.127Q616.564,333.049,616.564,332.576Zm.55,6.764h-.482v-5.293h.482Z" transform="translate(-543.498 -331.763)" fill="rgb(37 37 37 / 50%)"></path>
      <path id="Path_19" data-name="Path 19" d="M624.334,340.115a1.258,1.258,0,0,1-.541,1.093,2.631,2.631,0,0,1-1.533.382,3.652,3.652,0,0,1-1.685-.327v-.521a3.713,3.713,0,0,0,1.685.4,2.226,2.226,0,0,0,1.19-.26.793.793,0,0,0,.407-.694.847.847,0,0,0-.324-.672,3.591,3.591,0,0,0-1.064-.536,6.085,6.085,0,0,1-1.115-.494,1.547,1.547,0,0,1-.485-.468,1.175,1.175,0,0,1-.163-.636,1.084,1.084,0,0,1,.5-.939,2.421,2.421,0,0,1,1.4-.346,4.175,4.175,0,0,1,1.627.322l-.18.438a3.813,3.813,0,0,0-1.446-.322,2.1,2.1,0,0,0-1.028.214.658.658,0,0,0-.38.594.824.824,0,0,0,.294.662,4.1,4.1,0,0,0,1.152.555,5.677,5.677,0,0,1,1.042.465,1.518,1.518,0,0,1,.49.47A1.15,1.15,0,0,1,624.334,340.115Zm-1.105,2.795a.858.858,0,0,1-.329.734,1.508,1.508,0,0,1-.918.246,1.332,1.332,0,0,1-.458-.053v-.429a1.515,1.515,0,0,0,.448.049,1.024,1.024,0,0,0,.579-.136.444.444,0,0,0,.2-.389q0-.458-.94-.59l.453-.847h.468l-.322.57Q623.228,342.244,623.228,342.91Z" transform="translate(-545.663 -333.916)" fill="rgb(37 37 37 / 50%)"></path>
    </g>
    <g id="shopi">
      <path id="Path_20" data-name="Path 20" d="M228.417,274.241a5.121,5.121,0,0,0-4.194-1.976,3.947,3.947,0,0,0-1.784.433,1.535,1.535,0,0,0-.868,1.495,1.342,1.342,0,0,0,.892,1.277,11.739,11.739,0,0,0,2.266.723l2.941.675A11.084,11.084,0,0,1,230.611,278a6.592,6.592,0,0,1,2.266,2.1,6.259,6.259,0,0,1,.892,3.544,6.564,6.564,0,0,1-.988,3.736,7.574,7.574,0,0,1-2.531,2.363,10.891,10.891,0,0,1-3.472,1.253,20.591,20.591,0,0,1-3.808.362,18.433,18.433,0,0,1-4.966-.7,9.264,9.264,0,0,1-4.243-2.483l4.387-4.87a7.271,7.271,0,0,0,2.242,1.9,6.04,6.04,0,0,0,2.868.651,6.688,6.688,0,0,0,2.266-.362,1.332,1.332,0,0,0,1.013-1.326,1.47,1.47,0,0,0-.892-1.374,9.783,9.783,0,0,0-2.266-.771q-1.374-.313-2.941-.675a12.151,12.151,0,0,1-2.941-1.085,6.147,6.147,0,0,1-2.266-2.049,6.251,6.251,0,0,1-.892-3.543,7.144,7.144,0,0,1,.844-3.568,7.418,7.418,0,0,1,2.218-2.459,9.615,9.615,0,0,1,3.158-1.422,14.491,14.491,0,0,1,3.616-.458,16.961,16.961,0,0,1,4.676.675,8.68,8.68,0,0,1,4,2.41Z" transform="translate(121 -224.776)" fill="#263a95"></path>
      <path id="Path_21" data-name="Path 21" d="M268.471,242.881v14.753h.1a4.346,4.346,0,0,1,.819-1.35,6.416,6.416,0,0,1,1.4-1.205,7.644,7.644,0,0,1,1.928-.868,8.276,8.276,0,0,1,2.411-.337,9.968,9.968,0,0,1,4.435.843,6.422,6.422,0,0,1,2.628,2.338,9.473,9.473,0,0,1,1.278,3.519,26.834,26.834,0,0,1,.337,4.388v12.92H276.57V266.408q0-1.013-.073-2.1a6.62,6.62,0,0,0-.434-2,3.112,3.112,0,0,0-3.254-2.073,4.464,4.464,0,0,0-2.266.506,3.454,3.454,0,0,0-1.326,1.35,5.514,5.514,0,0,0-.6,1.9,16.451,16.451,0,0,0-.145,2.218v11.667h-7.232v-35Z" transform="translate(95.37 -211.881)" fill="#263a95"></path>
      <path id="Path_22" data-name="Path 22" d="M314.27,279.062A12.285,12.285,0,0,1,315.282,274a11.659,11.659,0,0,1,2.772-3.881,12.243,12.243,0,0,1,4.147-2.483,15.337,15.337,0,0,1,10.172,0,12.245,12.245,0,0,1,4.146,2.483A11.665,11.665,0,0,1,339.291,274a13.162,13.162,0,0,1,0,10.124A11.646,11.646,0,0,1,336.519,288a12.224,12.224,0,0,1-4.146,2.483,15.33,15.33,0,0,1-10.172,0A12.222,12.222,0,0,1,318.054,288a11.641,11.641,0,0,1-2.772-3.881A12.276,12.276,0,0,1,314.27,279.062Zm7.232,0a6.061,6.061,0,0,0,1.519,4.291,6.371,6.371,0,0,0,8.533,0,6.82,6.82,0,0,0,0-8.582,6.373,6.373,0,0,0-8.533,0A6.064,6.064,0,0,0,321.5,279.062Z" transform="translate(66.743 -224.776)" fill="#263a95"></path>
      <path id="Path_23" data-name="Path 23" d="M374.844,267.346H381.5v3.085h.1a8,8,0,0,1,1.133-1.277,8.56,8.56,0,0,1,1.639-1.181,10.254,10.254,0,0,1,2.049-.868,8.1,8.1,0,0,1,2.362-.337,12.087,12.087,0,0,1,4.725.892,10.546,10.546,0,0,1,3.64,2.507A11.193,11.193,0,0,1,399.48,274a13.956,13.956,0,0,1,.82,4.869,14.776,14.776,0,0,1-.747,4.7,12.954,12.954,0,0,1-2.122,3.977,10.35,10.35,0,0,1-3.351,2.772,9.508,9.508,0,0,1-4.483,1.037,12.432,12.432,0,0,1-4.218-.7,6.738,6.738,0,0,1-3.206-2.386h-.1v15.8h-7.232Zm6.653,11.716a6.061,6.061,0,0,0,1.519,4.291,6.371,6.371,0,0,0,8.533,0,6.822,6.822,0,0,0,0-8.582,6.373,6.373,0,0,0-8.533,0A6.065,6.065,0,0,0,381.5,279.062Z" transform="translate(34.043 -224.776)" fill="#263a95"></path>
      <path id="Path_24" data-name="Path 24" d="M432.813,247.075a4.2,4.2,0,1,1,1.23,2.965A4.038,4.038,0,0,1,432.813,247.075Zm.578,7.376h7.231v23.431h-7.231Z" transform="translate(2.75 -211.881)" fill="#263a95"></path>
    </g>
    <g id="next">
      <path id="Path_1" data-name="Path 1" d="M528.067,278.267a15.533,15.533,0,0,0-.71-4.625,10.527,10.527,0,0,0-2.1-3.52,10.386,10.386,0,0,0-3.445-2.482,11.291,11.291,0,0,0-4.736-.937,11.562,11.562,0,0,0-4.711.937,11.417,11.417,0,0,0-3.7,2.584,11.594,11.594,0,0,0-2.432,3.875,13.382,13.382,0,0,0-.861,4.863,14.241,14.241,0,0,0,.836,4.99,11.218,11.218,0,0,0,2.406,3.9,10.953,10.953,0,0,0,3.749,2.558,12.466,12.466,0,0,0,4.863.913,13.954,13.954,0,0,0,5.749-1.165,10.251,10.251,0,0,0,4.382-3.85l-2.229-1.874a8.118,8.118,0,0,1-3.343,3.039,9.787,9.787,0,0,1-4.509,1.115,8.447,8.447,0,0,1-4.381-1.014,9.865,9.865,0,0,1-1.251-.891l-.01.006s-.1-.079-.252-.218l-.024-.022c-.143-.131-.333-.315-.548-.546-.041-.045-.083-.089-.124-.135a8.249,8.249,0,0,1-2.274-5.371h19.654Zm-19.654-.608a10.162,10.162,0,0,1,.405-2.32,9.258,9.258,0,0,1,1.367-2.558,9.036,9.036,0,0,1,2.609-2.33,7.754,7.754,0,0,1,4.128-1.013,8.326,8.326,0,0,1,3.166.608,8.171,8.171,0,0,1,2.584,1.647,7.881,7.881,0,0,1,1.722,2.406,10.016,10.016,0,0,1,.633,3.561Z" transform="translate(-36.42 -224.74)" fill="#00a1ed"></path>
      <path id="Path_25" data-name="Path 25" d="M477.464,273.034a8.507,8.507,0,0,0-1.368-3.217,7.194,7.194,0,0,0-2.71-2.254,9.983,9.983,0,0,0-4.457-.861,8.86,8.86,0,0,0-4.964,1.393,8.2,8.2,0,0,0-3.039,3.318h-.152a7.885,7.885,0,0,1-.127-1.57q-.026-1.216-.076-2.533h-2.786v23.4h3.039v-11.7a12.725,12.725,0,0,1,.633-4.229,8.575,8.575,0,0,1,1.723-2.988,6.8,6.8,0,0,1,2.582-1.773,8.649,8.649,0,0,1,3.166-.583,6.074,6.074,0,0,1,2.963.633,4.643,4.643,0,0,1,1.773,1.7,7.34,7.34,0,0,1,.887,2.406,14.906,14.906,0,0,1,.254,2.761v13.778h3.039v-13.93A18.338,18.338,0,0,0,477.464,273.034Z" transform="translate(-10.73 -224.74)" fill="#00a1ed"></path>
      <path id="Path_26" data-name="Path 26" d="M588.82,279.836a11.136,11.136,0,0,1-1.7.582,6.991,6.991,0,0,1-1.748.229,3.213,3.213,0,0,1-2.381-.862,3.282,3.282,0,0,1-.861-2.431V262.106h6.687v-2.735h-6.687V252h-3.039v7.375h-7.489l-6.433,9.741-6.484-9.741h-3.9l8.359,11.615-8.359,11.787h3.647l6.636-9.71,6.383,9.71H575.4l-8.257-11.787,6.312-8.879h5.634v15.247a8.1,8.1,0,0,0,.329,2.356,5.057,5.057,0,0,0,1.039,1.9,4.942,4.942,0,0,0,1.874,1.292,7.29,7.29,0,0,0,2.786.481,9.068,9.068,0,0,0,1.976-.254c.637-.145,1.209-.3,1.722-.473Z" transform="translate(-63.096 -216.802)" fill="#00a1ed"></path>
    </g>
  </g>
</svg>